<?xml version="1.0" standalone="no"?>
<!DOCTYPE svg PUBLIC "-//W3C//DTD SVG 20010904//EN"
 "http://www.w3.org/TR/2001/REC-SVG-20010904/DTD/svg10.dtd">
<svg version="1.0" xmlns="http://www.w3.org/2000/svg"
 width="700.000000pt" height="700.000000pt" viewBox="0 0 700.000000 700.000000"
 preserveAspectRatio="xMidYMid meet">
<metadata>
Created by potrace 1.11, written by Peter Selinger 2001-2013
</metadata>
<g transform="translate(0.000000,700.000000) scale(0.100000,-0.100000)"
fill="#000000" stroke="none">
<path d="M1811 4259 c-257 -33 -481 -198 -591 -434 -50 -106 -70 -200 -70
-328 0 -356 231 -649 585 -743 67 -18 144 -19 1765 -19 1914 0 1744 -7 1925
80 266 129 425 385 425 685 0 357 -224 645 -580 746 -62 18 -145 19 -1730 20
-916 1 -1694 -2 -1729 -7z"/>
</g>
</svg>
